# Blender 5.1.2
# www.blender.org
mtllib PipeMini.mtl
o 円柱
v 12.816805 3.981245 -1.182588
v 14.989388 3.981245 -1.086292
v 12.816805 3.750534 -1.159865
v 14.989388 3.769320 -1.065419
v 12.816805 3.528688 -1.092569
v 14.989388 3.565539 -1.003603
v 12.816805 3.324234 -0.983286
v 14.989388 3.377734 -0.903218
v 12.816805 3.145029 -0.836216
v 14.989388 3.213121 -0.768124
v 12.816805 2.997959 -0.657011
v 14.989388 3.078026 -0.603511
v 12.816805 2.888676 -0.452557
v 14.989388 2.977642 -0.415706
v 12.816805 2.821380 -0.230711
v 14.989388 2.915826 -0.211925
v 12.816805 2.798657 0.000000
v 14.989388 2.894953 0.000000
v 12.816805 2.821380 0.230712
v 14.989388 2.915826 0.211925
v 12.816805 2.888676 0.452557
v 14.989388 2.977642 0.415706
v 12.816805 2.997959 0.657011
v 14.989388 3.078026 0.603512
v 12.816805 3.145029 0.836217
v 14.989388 3.213121 0.768125
v 12.816805 3.324234 0.983287
v 14.989388 3.377734 0.903219
v 12.816805 3.528688 1.092569
v 14.989388 3.565539 1.003603
v 12.816805 3.750534 1.159865
v 14.989388 3.769320 1.065419
v 12.816805 3.981245 1.182589
v 14.989388 3.981245 1.086292
v 12.816805 4.211957 1.159865
v 14.989388 4.193170 1.065419
v 12.816805 4.433802 1.092569
v 14.989388 4.396951 1.003603
v 12.816805 4.638256 0.983287
v 14.989388 4.584756 0.903219
v 12.816805 4.817461 0.836217
v 14.989388 4.749369 0.768125
v 12.816805 4.964531 0.657011
v 14.989388 4.884463 0.603512
v 12.816805 5.073814 0.452557
v 14.989388 4.984848 0.415706
v 12.816805 5.141110 0.230712
v 14.989388 5.046664 0.211925
v 12.816805 5.163834 0.000000
v 14.989388 5.067537 0.000000
v 12.816805 5.141110 -0.230711
v 14.989388 5.046664 -0.211925
v 12.816805 5.073814 -0.452557
v 14.989388 4.984848 -0.415706
v 12.816805 4.964531 -0.657011
v 14.989388 4.884463 -0.603511
v 12.816805 4.817461 -0.836216
v 14.989388 4.749369 -0.768124
v 12.816805 4.638256 -0.983286
v 14.989388 4.584756 -0.903218
v 12.816805 4.433802 -1.092569
v 14.989388 4.396951 -1.003603
v 12.816805 4.211957 -1.159865
v 14.989388 4.193170 -1.065419
vn -0.6695 -0.0000 -0.7428
vn 0.7016 -0.0000 -0.7125
vn -0.6695 -0.1449 -0.7286
vn 0.7016 -0.1390 -0.6988
vn -0.6695 -0.2843 -0.6863
vn 0.7016 -0.2727 -0.6583
vn -0.6695 -0.4127 -0.6176
vn 0.7016 -0.3959 -0.5925
vn -0.6695 -0.5253 -0.5253
vn 0.7016 -0.5038 -0.5038
vn -0.6695 -0.6176 -0.4127
vn 0.7016 -0.5925 -0.3959
vn -0.6695 -0.6863 -0.2843
vn 0.7016 -0.6583 -0.2727
vn -0.6695 -0.7286 -0.1449
vn 0.7016 -0.6988 -0.1390
vn -0.6695 -0.7428 -0.0000
vn 0.7016 -0.7125 -0.0000
vn -0.6695 -0.7286 0.1449
vn 0.7016 -0.6988 0.1390
vn -0.6695 -0.6863 0.2843
vn 0.7016 -0.6583 0.2727
vn -0.6695 -0.6176 0.4127
vn 0.7016 -0.5925 0.3959
vn -0.6695 -0.5253 0.5253
vn 0.7016 -0.5038 0.5038
vn -0.6695 -0.4127 0.6176
vn 0.7016 -0.3959 0.5925
vn -0.6695 -0.2843 0.6863
vn 0.7016 -0.2727 0.6583
vn -0.6695 -0.1449 0.7286
vn 0.7016 -0.1390 0.6988
vn -0.6695 -0.0000 0.7428
vn 0.7016 -0.0000 0.7125
vn -0.6695 0.1449 0.7286
vn 0.7016 0.1390 0.6988
vn -0.6695 0.2843 0.6863
vn 0.7016 0.2727 0.6583
vn -0.6695 0.4127 0.6176
vn 0.7016 0.3959 0.5925
vn -0.6695 0.5253 0.5253
vn 0.7016 0.5038 0.5038
vn -0.6695 0.6176 0.4127
vn 0.7016 0.5925 0.3959
vn -0.6695 0.6863 0.2843
vn 0.7016 0.6583 0.2727
vn -0.6695 0.7286 0.1449
vn 0.7016 0.6988 0.1390
vn -0.6695 0.7428 -0.0000
vn 0.7016 0.7125 -0.0000
vn -0.6695 0.7286 -0.1449
vn 0.7016 0.6988 -0.1390
vn -0.6695 0.6863 -0.2843
vn 0.7016 0.6583 -0.2727
vn -0.6695 0.6176 -0.4127
vn 0.7016 0.5925 -0.3959
vn -0.6695 0.5253 -0.5253
vn 0.7016 0.5038 -0.5038
vn -0.6695 0.4127 -0.6176
vn 0.7016 0.3959 -0.5925
vn -0.6695 0.2843 -0.6863
vn 0.7016 0.2727 -0.6583
vn -0.6695 0.1449 -0.7286
vn 0.7016 0.1390 -0.6988
vt 1.000000 0.500000
vt 1.000000 1.000000
vt 0.968750 1.000000
vt 0.968750 0.500000
vt 0.937500 1.000000
vt 0.937500 0.500000
vt 0.906250 1.000000
vt 0.906250 0.500000
vt 0.875000 1.000000
vt 0.875000 0.500000
vt 0.843750 1.000000
vt 0.843750 0.500000
vt 0.812500 1.000000
vt 0.812500 0.500000
vt 0.781250 1.000000
vt 0.781250 0.500000
vt 0.750000 1.000000
vt 0.750000 0.500000
vt 0.718750 1.000000
vt 0.718750 0.500000
vt 0.687500 1.000000
vt 0.687500 0.500000
vt 0.656250 1.000000
vt 0.656250 0.500000
vt 0.625000 1.000000
vt 0.625000 0.500000
vt 0.593750 1.000000
vt 0.593750 0.500000
vt 0.562500 1.000000
vt 0.562500 0.500000
vt 0.531250 1.000000
vt 0.531250 0.500000
vt 0.500000 1.000000
vt 0.500000 0.500000
vt 0.468750 1.000000
vt 0.468750 0.500000
vt 0.437500 1.000000
vt 0.437500 0.500000
vt 0.406250 1.000000
vt 0.406250 0.500000
vt 0.375000 1.000000
vt 0.375000 0.500000
vt 0.343750 1.000000
vt 0.343750 0.500000
vt 0.312500 1.000000
vt 0.312500 0.500000
vt 0.281250 1.000000
vt 0.281250 0.500000
vt 0.250000 1.000000
vt 0.250000 0.500000
vt 0.218750 1.000000
vt 0.218750 0.500000
vt 0.187500 1.000000
vt 0.187500 0.500000
vt 0.156250 1.000000
vt 0.156250 0.500000
vt 0.125000 1.000000
vt 0.125000 0.500000
vt 0.093750 1.000000
vt 0.093750 0.500000
vt 0.062500 1.000000
vt 0.062500 0.500000
vt 0.296822 0.485388
vt 0.250000 0.490000
vt 0.203178 0.485388
vt 0.158156 0.471731
vt 0.116663 0.449553
vt 0.080294 0.419706
vt 0.050447 0.383337
vt 0.028269 0.341844
vt 0.014612 0.296822
vt 0.010000 0.250000
vt 0.014612 0.203178
vt 0.028269 0.158156
vt 0.050447 0.116663
vt 0.080294 0.080294
vt 0.116663 0.050447
vt 0.158156 0.028269
vt 0.203178 0.014612
vt 0.250000 0.010000
vt 0.296822 0.014612
vt 0.341844 0.028269
vt 0.383337 0.050447
vt 0.419706 0.080294
vt 0.449553 0.116663
vt 0.471731 0.158156
vt 0.485388 0.203178
vt 0.490000 0.250000
vt 0.485388 0.296822
vt 0.471731 0.341844
vt 0.449553 0.383337
vt 0.419706 0.419706
vt 0.383337 0.449553
vt 0.341844 0.471731
vt 0.031250 1.000000
vt 0.031250 0.500000
vt 0.000000 1.000000
vt 0.000000 0.500000
vt 0.750000 0.490000
vt 0.796822 0.485388
vt 0.841844 0.471731
vt 0.883337 0.449553
vt 0.919706 0.419706
vt 0.949553 0.383337
vt 0.971731 0.341844
vt 0.985388 0.296822
vt 0.990000 0.250000
vt 0.985388 0.203178
vt 0.971731 0.158156
vt 0.949553 0.116663
vt 0.919706 0.080294
vt 0.883337 0.050447
vt 0.841844 0.028269
vt 0.796822 0.014612
vt 0.750000 0.010000
vt 0.703178 0.014612
vt 0.658156 0.028269
vt 0.616663 0.050447
vt 0.580294 0.080294
vt 0.550447 0.116663
vt 0.528269 0.158156
vt 0.514612 0.203178
vt 0.510000 0.250000
vt 0.514612 0.296822
vt 0.528269 0.341844
vt 0.550447 0.383337
vt 0.580294 0.419706
vt 0.616663 0.449553
vt 0.658156 0.471731
vt 0.703178 0.485388
s 1
usemtl マテリアル
f 1/1/1 2/2/2 4/3/4 3/4/3
f 3/4/3 4/3/4 6/5/6 5/6/5
f 5/6/5 6/5/6 8/7/8 7/8/7
f 7/8/7 8/7/8 10/9/10 9/10/9
f 9/10/9 10/9/10 12/11/12 11/12/11
f 11/12/11 12/11/12 14/13/14 13/14/13
f 13/14/13 14/13/14 16/15/16 15/16/15
f 15/16/15 16/15/16 18/17/18 17/18/17
f 17/18/17 18/17/18 20/19/20 19/20/19
f 19/20/19 20/19/20 22/21/22 21/22/21
f 21/22/21 22/21/22 24/23/24 23/24/23
f 23/24/23 24/23/24 26/25/26 25/26/25
f 25/26/25 26/25/26 28/27/28 27/28/27
f 27/28/27 28/27/28 30/29/30 29/30/29
f 29/30/29 30/29/30 32/31/32 31/32/31
f 31/32/31 32/31/32 34/33/34 33/34/33
f 33/34/33 34/33/34 36/35/36 35/36/35
f 35/36/35 36/35/36 38/37/38 37/38/37
f 37/38/37 38/37/38 40/39/40 39/40/39
f 39/40/39 40/39/40 42/41/42 41/42/41
f 41/42/41 42/41/42 44/43/44 43/44/43
f 43/44/43 44/43/44 46/45/46 45/46/45
f 45/46/45 46/45/46 48/47/48 47/48/47
f 47/48/47 48/47/48 50/49/50 49/50/49
f 49/50/49 50/49/50 52/51/52 51/52/51
f 51/52/51 52/51/52 54/53/54 53/54/53
f 53/54/53 54/53/54 56/55/56 55/56/55
f 55/56/55 56/55/56 58/57/58 57/58/57
f 57/58/57 58/57/58 60/59/60 59/60/59
f 59/60/59 60/59/60 62/61/62 61/62/61
f 4/63/4 2/64/2 64/65/64 62/66/62 60/67/60 58/68/58 56/69/56 54/70/54 52/71/52 50/72/50 48/73/48 46/74/46 44/75/44 42/76/42 40/77/40 38/78/38 36/79/36 34/80/34 32/81/32 30/82/30 28/83/28 26/84/26 24/85/24 22/86/22 20/87/20 18/88/18 16/89/16 14/90/14 12/91/12 10/92/10 8/93/8 6/94/6
f 61/62/61 62/61/62 64/95/64 63/96/63
f 63/96/63 64/95/64 2/97/2 1/98/1
f 1/99/1 3/100/3 5/101/5 7/102/7 9/103/9 11/104/11 13/105/13 15/106/15 17/107/17 19/108/19 21/109/21 23/110/23 25/111/25 27/112/27 29/113/29 31/114/31 33/115/33 35/116/35 37/117/37 39/118/39 41/119/41 43/120/43 45/121/45 47/122/47 49/123/49 51/124/51 53/125/53 55/126/55 57/127/57 59/128/59 61/129/61 63/130/63
