# Blender 5.1.2
# www.blender.org
mtllib Table.mtl.mtl
o 立方体.004
v -2.900000 0.000000 0.792000
v -2.900000 1.000000 0.792000
v -2.792000 0.000000 0.792000
v -2.792000 1.000000 0.792000
v -2.900000 0.000000 0.900000
v -2.900000 1.000000 0.900000
v -2.792000 0.000000 0.900000
v -2.792000 1.000000 0.900000
v -3.000175 0.950000 1.000000
v -3.000175 1.050000 1.000000
v -3.000175 0.950000 -1.000000
v -3.000175 1.050000 -1.000000
v 3.000175 0.950000 1.000000
v 3.000175 1.050000 1.000000
v 3.000175 0.950000 -1.000000
v 3.000175 1.050000 -1.000000
v 2.792000 0.000000 0.900000
v 2.792000 1.000000 0.900000
v 2.792000 0.000000 0.792000
v 2.792000 1.000000 0.792000
v 2.900000 0.000000 0.900000
v 2.900000 1.000000 0.900000
v 2.900000 0.000000 0.792000
v 2.900000 1.000000 0.792000
v 2.900000 0.000000 -0.792000
v 2.900000 1.000000 -0.792000
v 2.792000 0.000000 -0.792000
v 2.792000 1.000000 -0.792000
v 2.900000 0.000000 -0.900000
v 2.900000 1.000000 -0.900000
v 2.792000 0.000000 -0.900000
v 2.792000 1.000000 -0.900000
v -2.792000 0.000000 -0.900000
v -2.792000 1.000000 -0.900000
v -2.792000 0.000000 -0.792000
v -2.792000 1.000000 -0.792000
v -2.900000 0.000000 -0.900000
v -2.900000 1.000000 -0.900000
v -2.900000 0.000000 -0.792000
v -2.900000 1.000000 -0.792000
vn -0.0000 -0.0000 -1.0000
vn 1.0000 -0.0000 -0.0000
vn -0.0000 -0.0000 1.0000
vn -1.0000 -0.0000 -0.0000
vn -0.0000 -1.0000 -0.0000
vn -0.0000 1.0000 -0.0000
vt 0.860090 0.144662
vt 0.860090 0.865832
vt 0.972811 0.865832
vt 0.972811 0.144662
vt 0.521929 0.144662
vt 0.521929 0.865832
vt 0.634650 0.865831
vt 0.634649 0.144662
vt 0.747370 0.865832
vt 0.747370 0.144662
vt 0.860090 0.031942
vt 0.747370 0.031942
vt 0.747370 0.978552
vt 0.860090 0.978552
vt 0.101459 0.249989
vt 0.061039 0.249989
vt 0.061039 0.000000
vt 0.101459 0.000000
vt 0.020619 -0.000000
vt 0.061039 -0.000000
vt 0.061039 0.750011
vt 0.020620 0.750011
vt 0.061039 1.000000
vt 0.020619 1.000000
vt 0.101460 0.999999
vt 0.061041 0.999999
vt 0.129409 0.873799
vt 0.129409 0.123788
vt 0.306178 0.123788
vt 0.306178 0.873799
vt 0.306178 0.873799
vt 0.306178 0.123788
vt 0.482947 0.123788
vt 0.482947 0.873799
vt 0.634649 0.865832
vt 0.521929 0.144662
vt 0.521929 0.865832
vt 0.747370 0.144662
vt 0.747370 0.865832
vt 0.860090 0.978552
vt 0.747370 0.978552
vt 0.747370 0.031942
vt 0.860090 0.144662
vt 0.860090 0.865831
vt 0.972811 0.865831
vt 0.521929 0.865831
vt 0.634649 0.865831
vt 0.747370 0.865831
vt 0.747370 0.144662
vt 0.860090 0.031942
vt 0.747370 0.031942
vt 0.747370 0.978552
vt 0.860090 0.978552
vt 0.634650 0.144662
vt 0.634650 0.865831
vt 0.521929 0.865831
vt 0.521929 0.144662
vt 0.972811 0.144662
vt 0.972811 0.865831
vt 0.860090 0.865831
vt 0.860090 0.144662
vt 0.747370 0.865831
vt 0.747370 0.144662
vt 0.860090 0.031941
vt 0.747370 0.031941
vt 0.747370 0.978551
s 0
usemtl Material
f 8/13/6 4/14/6 2/2/6 6/9/6
f 9/15/4 10/16/4 12/17/4 11/18/4
f 11/19/1 12/20/1 16/21/1 15/22/1
f 15/22/2 16/21/2 14/23/2 13/24/2
f 13/25/3 14/26/3 10/16/3 9/15/3
f 11/27/5 15/28/5 13/29/5 9/30/5
f 16/31/6 12/32/6 10/33/6 14/34/6
f 24/1/6 20/11/6 18/42/6 22/38/6
f 32/52/6 28/53/6 26/44/6 30/48/6
f 40/60/6 36/40/6 34/66/6 38/62/6
usemtl マテリアル.002
f 1/1/1 2/2/1 4/3/1 3/4/1
f 3/5/2 4/6/2 8/7/2 7/8/2
f 7/8/3 8/7/3 6/9/3 5/10/3
f 5/10/4 6/9/4 2/2/4 1/1/4
f 3/11/5 7/12/5 5/10/5 1/1/5
f 17/35/4 18/8/4 20/36/4 19/37/4
f 19/3/1 20/4/1 24/1/1 23/2/1
f 23/2/2 24/1/2 22/38/2 21/39/2
f 21/39/3 22/38/3 18/8/3 17/35/3
f 19/40/5 23/2/5 21/39/5 17/41/5
f 25/43/3 26/44/3 28/45/3 27/4/3
f 27/36/4 28/46/4 32/47/4 31/8/4
f 31/8/1 32/47/1 30/48/1 29/49/1
f 29/49/2 30/48/2 26/44/2 25/43/2
f 27/50/5 31/51/5 29/49/5 25/43/5
f 33/54/2 34/55/2 36/56/2 35/57/2
f 35/58/3 36/59/3 40/60/3 39/61/3
f 39/61/4 40/60/4 38/62/4 37/63/4
f 37/63/1 38/62/1 34/55/1 33/54/1
f 35/64/5 39/61/5 37/63/5 33/65/5
